<?xml version="1.0" standalone="no"?>
<!DOCTYPE svg PUBLIC "-//W3C//DTD SVG 20010904//EN"
 "http://www.w3.org/TR/2001/REC-SVG-20010904/DTD/svg10.dtd">
<svg version="1.0" xmlns="http://www.w3.org/2000/svg"
 width="643.000000pt" height="643.000000pt" viewBox="0 0 643.000000 643.000000"
 preserveAspectRatio="xMidYMid meet">
<metadata>
Created by potrace 1.14, written by Peter Selinger 2001-2017
</metadata>
<g transform="translate(0.000000,643.000000) scale(0.100000,-0.100000)"
fill="#000000" stroke="none">
<path d="M3086 6193 c-1 -1 -31 -5 -66 -8 -109 -10 -116 -11 -209 -30 -48 -9
-138 -37 -206 -63 -38 -14 -73 -25 -77 -24 -5 1 -8 -2 -8 -8 0 -5 -6 -10 -14
-10 -21 0 -168 -80 -259 -142 -289 -196 -515 -497 -632 -841 -20 -59 -38 -117
-40 -130 -3 -12 -9 -44 -15 -72 -52 -251 -43 -563 22 -789 6 -23 12 -43 13
-46 15 -63 88 -243 127 -314 21 -39 42 -79 45 -88 3 -10 9 -18 14 -18 5 0 9
-4 9 -9 0 -9 57 -100 70 -111 3 -3 25 -31 49 -62 51 -68 191 -213 244 -252 20
-16 37 -33 37 -39 0 -5 -8 -3 -17 5 -64 56 -429 184 -463 163 -5 -3 -11 -1
-15 4 -3 5 -13 10 -23 10 -235 6 -314 6 -351 -1 -25 -5 -64 -11 -85 -14 -39
-5 -152 -33 -211 -53 -291 -97 -555 -302 -735 -571 -91 -135 -182 -342 -210
-473 -10 -51 -15 -74 -25 -119 -17 -80 -24 -327 -11 -418 4 -25 9 -63 12 -85
2 -22 7 -48 10 -57 3 -9 7 -26 9 -39 31 -160 135 -393 243 -543 31 -43 62 -86
67 -94 25 -38 197 -205 265 -255 41 -32 80 -61 85 -65 60 -47 305 -170 375
-187 3 -1 12 -4 20 -7 49 -19 163 -48 245 -63 77 -14 162 -20 295 -20 190 1
278 12 430 55 41 11 82 22 90 24 25 7 146 53 166 64 10 6 44 23 74 37 30 15
69 35 85 46 17 10 37 22 45 26 55 26 191 132 295 233 212 203 375 472 460 759
24 83 28 99 40 161 12 62 15 73 20 78 3 4 5 -9 4 -28 -3 -83 22 -248 54 -355
11 -38 21 -75 23 -81 4 -23 93 -215 103 -224 3 -3 15 -21 25 -40 61 -113 261
-334 358 -395 9 -5 37 -25 63 -43 69 -48 179 -105 275 -142 47 -18 94 -36 105
-41 11 -4 31 -10 45 -12 14 -3 54 -12 90 -20 36 -8 72 -15 80 -15 8 0 40 -4
70 -8 245 -31 552 21 795 135 285 134 565 396 690 646 11 22 26 46 33 53 6 7
12 17 12 22 0 5 13 37 28 72 87 192 132 401 135 618 1 82 -11 269 -18 280 -2
3 -6 25 -10 50 -4 25 -8 47 -10 51 -2 3 -7 19 -9 36 -17 92 -92 288 -153 396
-18 33 -33 63 -33 68 0 5 -4 9 -10 9 -5 0 -10 4 -10 9 0 11 -63 105 -84 127
-9 8 -16 19 -16 24 0 5 -55 64 -122 132 -168 170 -268 243 -464 342 -104 52
-278 118 -340 130 -16 2 -61 12 -100 20 -112 25 -186 31 -364 30 -171 -1 -286
-16 -430 -55 -41 -12 -82 -22 -90 -24 -8 -2 -32 -11 -52 -19 -23 -10 -38 -12
-38 -6 0 6 8 14 18 17 26 10 151 102 201 148 100 92 231 246 231 273 0 6 3 12
8 12 4 0 16 17 27 38 10 20 24 44 31 52 13 17 81 176 95 223 15 46 38 132 43
159 3 12 7 34 10 47 27 122 25 365 -4 511 -5 25 -12 61 -15 80 -27 141 -148
401 -244 525 -17 22 -41 53 -53 69 -66 85 -212 217 -328 296 -12 8 -28 21 -36
28 -7 6 -17 12 -23 12 -6 0 -32 13 -58 29 -79 49 -277 128 -366 146 -10 2 -26
6 -35 9 -33 10 -123 24 -212 32 -56 6 -210 11 -214 7z m-415 -3021 c121 -57
273 -107 358 -118 19 -3 37 -7 42 -9 37 -24 502 -23 540 1 4 2 24 6 45 10 45
6 162 39 217 59 21 9 37 11 37 5 0 -6 -5 -10 -11 -10 -10 0 -149 -86 -159 -99
-3 -3 -23 -19 -45 -36 -52 -38 -191 -176 -241 -240 -21 -27 -41 -52 -44 -55
-14 -13 -111 -172 -139 -228 -31 -62 -89 -202 -96 -232 -2 -12 -13 -52 -30
-110 -2 -7 -19 -104 -20 -112 0 -3 -3 -9 -6 -12 -3 -4 -7 29 -8 72 -1 43 -4
93 -6 112 -3 19 -7 58 -10 85 -11 92 -73 309 -98 343 -5 6 -7 12 -3 12 9 0
-74 164 -85 168 -5 2 -9 10 -9 18 0 14 -64 111 -128 194 -19 25 -86 96 -149
158 -75 74 -101 105 -75 88 22 -13 77 -42 123 -64z"/>
</g>
</svg>
